<svg xmlns="http://www.w3.org/2000/svg" width="152.144" height="135.493" viewBox="0 0 152.144 135.493">
  <g id="noun-operations-3147052" transform="translate(-89.041 -47.6)">
    <path id="Caminho_139" data-name="Caminho 139" d="M184.181,121.52A21.222,21.222,0,1,0,205.4,142.742,21.18,21.18,0,0,0,184.181,121.52Zm0,37.71a16.324,16.324,0,1,1,16.324-16.324A16.372,16.372,0,0,1,184.181,159.23Z" transform="translate(-52.37 -52.372)" fill="#e77817"/>
    <path id="Caminho_140" data-name="Caminho 140" d="M141.932,130.855v-5.387a42.85,42.85,0,0,0,7.51-3.1l3.754,3.754a2.368,2.368,0,0,0,3.429,0l10.937-10.937a2.368,2.368,0,0,0,0-3.429L163.808,108a38.227,38.227,0,0,0,3.1-7.51H172.3a2.51,2.51,0,0,0,2.448-2.448V82.7a2.51,2.51,0,0,0-2.448-2.448h-5.551a42.849,42.849,0,0,0-3.1-7.51l3.754-3.754a2.368,2.368,0,0,0,0-3.429L156.461,54.619a2.368,2.368,0,0,0-3.429,0l-3.754,3.754a38.229,38.229,0,0,0-7.51-3.1V50.048a2.51,2.51,0,0,0-2.448-2.448H123.975a2.51,2.51,0,0,0-2.448,2.448v5.387a42.849,42.849,0,0,0-7.51,3.1l-3.754-3.754a2.366,2.366,0,0,0-3.429,0L95.9,65.72a2.368,2.368,0,0,0,0,3.429L99.814,72.9a38.228,38.228,0,0,0-3.1,7.51H91.489a2.51,2.51,0,0,0-2.448,2.448V98.205a2.4,2.4,0,0,0,2.448,2.449h5.387a42.849,42.849,0,0,0,3.1,7.51l-3.754,3.754a2.368,2.368,0,0,0,0,3.429l10.937,10.937a2.366,2.366,0,0,0,3.429,0l3.754-3.754a38.227,38.227,0,0,0,7.51,3.1v5.387a2.51,2.51,0,0,0,2.448,2.448h15.345a2.794,2.794,0,0,0,2.284-2.613Zm-4.9-7.183v4.735H126.587v-4.734a2.6,2.6,0,0,0-1.959-2.448,32.253,32.253,0,0,1-9.468-3.918,2.471,2.471,0,0,0-3.1.327l-3.429,3.429-7.346-7.346,3.429-3.429a2.471,2.471,0,0,0,.327-3.1,34.171,34.171,0,0,1-3.918-9.468,2.6,2.6,0,0,0-2.449-1.96H93.938V85.31h4.734a2.6,2.6,0,0,0,2.448-1.959,32.254,32.254,0,0,1,3.918-9.468,2.471,2.471,0,0,0-.327-3.1l-3.429-3.429,7.346-7.346,3.429,3.429a2.471,2.471,0,0,0,3.1.327,34.171,34.171,0,0,1,9.468-3.918,2.6,2.6,0,0,0,1.959-2.448V52.662h10.448V57.4a2.6,2.6,0,0,0,1.959,2.448,32.254,32.254,0,0,1,9.468,3.918,2.471,2.471,0,0,0,3.1-.327l3.429-3.429,7.346,7.346-3.429,3.429a2.471,2.471,0,0,0-.327,3.1,34.171,34.171,0,0,1,3.918,9.468,2.6,2.6,0,0,0,2.448,1.959h4.734l0,10.448h-4.734a2.6,2.6,0,0,0-2.448,1.959,32.254,32.254,0,0,1-3.918,9.468,2.471,2.471,0,0,0,.327,3.1l3.429,3.429-7.346,7.346-3.429-3.429a2.471,2.471,0,0,0-3.1-.327,34.179,34.179,0,0,1-9.469,3.918,2.6,2.6,0,0,0-1.959,2.448Z" fill="#e77817"/>
    <path id="Caminho_141" data-name="Caminho 141" d="M439.17,267.68a18.529,18.529,0,1,0,18.61,18.447A18.6,18.6,0,0,0,439.17,267.68Zm0,32.159a13.712,13.712,0,1,1,13.712-13.712,13.689,13.689,0,0,1-13.712,13.712Z" transform="translate(-234.879 -155.925)" fill="#e77817"/>
    <path id="Caminho_142" data-name="Caminho 142" d="M429.181,232.314h-4.244a31.683,31.683,0,0,0-2.448-5.877l3.1-3.1a2.368,2.368,0,0,0,0-3.429l-9.306-9.306a2.368,2.368,0,0,0-3.429,0l-3.1,3.1a44.824,44.824,0,0,0-5.877-2.448v-4.407a2.51,2.51,0,0,0-2.448-2.448H388.207a2.51,2.51,0,0,0-2.448,2.448v4.244a31.681,31.681,0,0,0-5.877,2.448l-3.1-3.1a2.368,2.368,0,0,0-3.429,0l-9.468,9.468a2.368,2.368,0,0,0,0,3.429l3.1,3.1a44.824,44.824,0,0,0-2.448,5.877h-4.244a2.51,2.51,0,0,0-2.448,2.448v13.223a2.51,2.51,0,0,0,2.448,2.448h4.244a31.681,31.681,0,0,0,2.448,5.877l-3.1,3.1a2.368,2.368,0,0,0,0,3.429l9.306,9.306a2.368,2.368,0,0,0,3.429,0l3.1-3.1a44.826,44.826,0,0,0,5.877,2.448v4.244a2.51,2.51,0,0,0,2.448,2.448h13.223a2.51,2.51,0,0,0,2.448-2.448v-4.244a31.681,31.681,0,0,0,5.877-2.448l3.1,3.1a2.368,2.368,0,0,0,3.429,0l9.306-9.306a2.368,2.368,0,0,0,0-3.429l-2.939-3.1a44.822,44.822,0,0,0,2.448-5.877h4.244a2.51,2.51,0,0,0,2.448-2.448V234.763a2.312,2.312,0,0,0-2.448-2.449Zm-2.448,13.06h-3.754a2.6,2.6,0,0,0-2.448,1.959,26.63,26.63,0,0,1-3.265,8,2.471,2.471,0,0,0,.327,3.1l2.612,2.612-5.877,5.877-2.612-2.612a2.471,2.471,0,0,0-3.1-.327,24.321,24.321,0,0,1-8,3.265,2.6,2.6,0,0,0-1.959,2.448v3.754h-8.325V269.7a2.6,2.6,0,0,0-1.959-2.448,26.631,26.631,0,0,1-8-3.265,2.471,2.471,0,0,0-3.1.327l-2.612,2.612-5.877-5.877,2.612-2.612a2.471,2.471,0,0,0,.327-3.1,24.321,24.321,0,0,1-3.265-8,2.6,2.6,0,0,0-2.448-1.959h-3.754v-8.325h3.754a2.6,2.6,0,0,0,2.448-1.959,26.629,26.629,0,0,1,3.265-8,2.471,2.471,0,0,0-.327-3.1l-2.287-2.449,5.877-5.877,2.612,2.612a2.471,2.471,0,0,0,3.1.327,24.321,24.321,0,0,1,8-3.265,2.6,2.6,0,0,0,1.959-2.448v-3.754h8.325v3.754a2.6,2.6,0,0,0,1.959,2.448,26.63,26.63,0,0,1,8,3.265,2.471,2.471,0,0,0,3.1-.327l2.612-2.612,5.877,5.877-2.612,2.612a2.471,2.471,0,0,0-.327,3.1,24.32,24.32,0,0,1,3.265,8,2.6,2.6,0,0,0,2.448,1.959h3.754v8.162Z" transform="translate(-190.445 -111.09)" fill="#e77817"/>
    <path id="Caminho_143" data-name="Caminho 143" d="M270.592,395.36a9.631,9.631,0,1,0,9.631,9.631A9.649,9.649,0,0,0,270.592,395.36Zm0,14.366a4.734,4.734,0,1,1,4.733-4.734A4.737,4.737,0,0,1,270.592,409.726Z" transform="translate(-121.804 -246.385)" fill="#e77817"/>
    <path id="Caminho_144" data-name="Caminho 144" d="M255.969,362.192h-2.123a19.826,19.826,0,0,0-1.143-2.775l1.469-1.469a2.368,2.368,0,0,0,0-3.429l-5.877-5.877a2.366,2.366,0,0,0-3.429,0l-1.467,1.469a14.159,14.159,0,0,0-2.775-1.143v-2.123a2.51,2.51,0,0,0-2.448-2.448h-8.325a2.51,2.51,0,0,0-2.448,2.448v2.123a19.83,19.83,0,0,0-2.775,1.143l-1.469-1.469a2.456,2.456,0,0,0-1.8-.652,3.431,3.431,0,0,0-1.8.652l-5.877,5.877a2.368,2.368,0,0,0,0,3.429l1.469,1.469a14.157,14.157,0,0,0-1.143,2.775h-2.123a2.51,2.51,0,0,0-2.448,2.448v8.325a2.51,2.51,0,0,0,2.448,2.448h2.123a19.83,19.83,0,0,0,1.143,2.775l-1.469,1.469a2.368,2.368,0,0,0,0,3.429l5.877,5.877a2.366,2.366,0,0,0,3.429,0l1.469-1.469a14.159,14.159,0,0,0,2.775,1.143l0,2.285a2.51,2.51,0,0,0,2.448,2.448h8.325a2.51,2.51,0,0,0,2.448-2.448V388.8a19.831,19.831,0,0,0,2.775-1.143l1.469,1.469a2.456,2.456,0,0,0,1.8.652,3.431,3.431,0,0,0,1.8-.652l5.877-5.877a2.368,2.368,0,0,0,0-3.429l-1.469-1.469a14.158,14.158,0,0,0,1.143-2.775h2.123a2.51,2.51,0,0,0,2.448-2.448V364.8a2.445,2.445,0,0,0-2.448-2.611Zm-2.448,8.488h-1.469a2.6,2.6,0,0,0-2.448,1.959,16.234,16.234,0,0,1-1.959,4.9,2.471,2.471,0,0,0,.327,3.1l.979.979-2.448,2.448-.982-1.142a2.471,2.471,0,0,0-3.1-.327,12.871,12.871,0,0,1-4.9,1.959A2.6,2.6,0,0,0,235.563,387v1.469h-3.429V387a2.6,2.6,0,0,0-1.959-2.448,16.233,16.233,0,0,1-4.9-1.959,2.471,2.471,0,0,0-3.1.327l-.979.979-2.448-2.448.979-.979a2.471,2.471,0,0,0,.327-3.1,12.871,12.871,0,0,1-1.959-4.9,2.6,2.6,0,0,0-2.448-1.959H214.5v-3.429h1.469a2.6,2.6,0,0,0,2.448-1.959,16.234,16.234,0,0,1,1.959-4.9,2.471,2.471,0,0,0-.327-3.1l-.979-.979,2.448-2.448.979.979a2.471,2.471,0,0,0,3.1.327,12.871,12.871,0,0,1,4.9-1.959,2.6,2.6,0,0,0,1.959-2.448v-1.469h3.267V350.6a2.6,2.6,0,0,0,1.959,2.448,16.234,16.234,0,0,1,4.9,1.959,2.471,2.471,0,0,0,3.1-.327l.979-.979,2.448,2.448-.979.979a2.8,2.8,0,0,0-.49,3.267,12.872,12.872,0,0,1,1.959,4.9,2.6,2.6,0,0,0,2.448,1.959h1.469Z" transform="translate(-85.306 -210.278)" fill="#e77817"/>
  </g>
</svg>
