<svg xmlns="http://www.w3.org/2000/svg" width="40" height="40" viewBox="0 0 40 40">
  <g id="noun-check-4845742" transform="translate(-109.197 -93.248)">
    <path id="Caminho_138" data-name="Caminho 138" d="M110.979,114.363a5.915,5.915,0,0,1-1.168-6.9c1.155-2.321,3.551-3,5.351-1.5a41.02,41.02,0,0,1,9.055,11.57c3.748-7.539,10.272-18.116,19.446-23.791,1.926-1.188,4.234-.137,5.154,2.346s.106,5.459-1.819,6.646c-12.645,7.826-19.452,27.527-19.471,27.585l-.007,0a4.351,4.351,0,0,1-2.449,2.74c-2.051.766-4.2-.756-4.79-3.4a30.281,30.281,0,0,0-9.3-15.285Z" transform="translate(0)" fill="#18c54c"/>
  </g>
</svg>
